<svg width="40" height="40" viewBox="0 0 40 40" fill="none" xmlns="http://www.w3.org/2000/svg">
<path d="M8.09912 30.5994L8.09889 30.5992C7.22616 29.9485 6.42555 28.9207 5.84276 27.7591C5.25992 26.5974 4.91669 25.3452 4.91669 24.2667V11.8667C4.91669 9.50748 6.67152 6.96189 8.89119 6.13525L8.89215 6.13489L17.2084 3.01838C17.2085 3.01835 17.2086 3.01832 17.2086 3.01829C17.9621 2.73673 18.9616 2.58752 19.9834 2.58752C21.0051 2.58752 22.0046 2.73673 22.7581 3.01829C22.7581 3.01832 22.7582 3.01835 22.7583 3.01838L31.0746 6.1349L31.0755 6.13525C33.2952 6.96189 35.05 9.50748 35.05 11.8667V24.25C35.05 25.3372 34.7066 26.5893 34.1241 27.7484C33.5416 28.9074 32.7411 29.9314 31.8678 30.5825L31.8676 30.5827L24.7009 35.9327L24.7009 35.9326L24.6947 35.9374C23.412 36.9265 21.724 37.4334 20 37.4334C18.2774 37.4334 16.5852 36.9271 15.2649 35.9487C15.2647 35.9486 15.2646 35.9484 15.2644 35.9483L8.09912 30.5994ZM17.7419 4.43157L17.7412 4.43182L9.42456 7.54849L9.42386 7.54875C8.59627 7.86031 7.85504 8.5226 7.32412 9.29073C6.79303 10.0591 6.43335 10.9899 6.43335 11.8834V24.2667C6.43335 25.1612 6.74394 26.1893 7.20094 27.1011C7.65782 28.0127 8.29331 28.8723 9.00087 29.4007L9.00092 29.4007L16.1672 34.7504C17.2292 35.5446 18.6283 35.925 20.0021 35.925C21.3761 35.925 22.7783 35.5446 23.8478 34.7517L23.8491 34.7507L31.0158 29.4007L31.0167 29.4C31.7314 28.864 32.3669 28.0051 32.8222 27.0945C33.2776 26.1838 33.5834 25.1601 33.5834 24.2667V11.8667C33.5834 10.9805 33.2229 10.0539 32.6926 9.28657C32.1621 8.51902 31.4223 7.85409 30.5976 7.53392L30.5977 7.53389L30.5921 7.53182L22.2755 4.41515L22.2755 4.41507L22.2664 4.41186C21.6283 4.18663 20.8002 4.08326 20.0007 4.08544C19.2021 4.08762 18.3752 4.19526 17.7419 4.43157Z" fill="#FAFAFA" stroke="#FAFAFA"/>
<path d="M17.4131 21.0535L17.7667 21.4071L18.1202 21.0535L24.4036 14.7702C24.6916 14.4821 25.1751 14.4821 25.4631 14.7702C25.7512 15.0583 25.7512 15.5417 25.4631 15.8298L18.2965 22.9964C18.1452 23.1477 17.9579 23.2166 17.7667 23.2166C17.5755 23.2166 17.3882 23.1477 17.2369 22.9964L14.5536 20.3131C14.2655 20.025 14.2655 19.5416 14.5536 19.2535C14.8416 18.9655 15.3251 18.9655 15.6131 19.2535L17.4131 21.0535Z" fill="#FAFAFA" stroke="#FAFAFA"/>
</svg>
